# Blender 4.0.2
# www.blender.org
mtllib TextCounter1.mtl
o 1
v 0.000000 -0.250000 -0.050000
v 0.000000 -0.250000 0.050000
v -0.000000 0.250000 0.050000
v -0.000000 0.250000 -0.050000
v -0.100000 -0.250000 -0.050000
v -0.100000 -0.250000 0.050000
v -0.100000 0.250000 0.050000
v -0.100000 0.250000 -0.050000
vn -1.0000 -0.0000 -0.0000
vn 1.0000 -0.0000 -0.0000
vn -0.0000 -0.0000 -1.0000
vn -0.0000 -0.0000 1.0000
vn -0.0000 -1.0000 -0.0000
vn -0.0000 1.0000 -0.0000
vt 0.333333 0.000000
vt 0.666667 0.000000
vt 1.000000 0.000000
vt 0.000000 0.000000
s 0
f 2/1/1 3/2/1 4/3/1
f 2/1/1 4/3/1 1/4/1
f 6/1/2 8/3/2 7/2/2
f 6/1/2 5/4/2 8/3/2
f 3/2/3 2/1/3 6/1/3 7/2/3
f 1/4/4 4/3/4 8/3/4 5/4/4
f 4/3/5 3/2/5 7/2/5 8/3/5
f 2/1/6 1/4/6 5/4/6 6/1/6
